<?xml version="1.0" encoding="utf-8"?>
<!-- Generator: Adobe Illustrator 16.0.4, SVG Export Plug-In . SVG Version: 6.00 Build 0)  -->
<!DOCTYPE svg PUBLIC "-//W3C//DTD SVG 1.1//EN" "http://www.w3.org/Graphics/SVG/1.1/DTD/svg11.dtd">
<svg version="1.1" id="Layer_1" xmlns="http://www.w3.org/2000/svg" xmlns:xlink="http://www.w3.org/1999/xlink" x="0px" y="0px"
	 width="1024px" height="768px" viewBox="0 0 1024 768" enable-background="new 0 0 1024 768" xml:space="preserve">
<circle opacity="0.8" fill="none" stroke="#4ABB84" stroke-width="11" stroke-linecap="round" stroke-linejoin="round" stroke-miterlimit="10" enable-background="new    " cx="282.037" cy="121.988" r="22.574"/>
<circle opacity="0.8" fill="none" stroke="#4ABB84" stroke-width="11" stroke-linecap="round" stroke-linejoin="round" stroke-miterlimit="10" enable-background="new    " cx="710.037" cy="127.988" r="22.574"/>
<circle opacity="0.8" fill="none" stroke="#4ABB84" stroke-width="11" stroke-linecap="round" stroke-linejoin="round" stroke-miterlimit="10" enable-background="new    " cx="591.037" cy="429.988" r="22.574"/>
<circle opacity="0.8" fill="none" stroke="#4ABB84" stroke-width="11" stroke-linecap="round" stroke-linejoin="round" stroke-miterlimit="10" enable-background="new    " cx="296.037" cy="631.988" r="22.574"/>
<text transform="matrix(1 0 0 1 747.9268 88.9512)" font-family="'OpenSans'" font-size="27">Noord-Holland</text>
<text transform="matrix(1 0 0 1 747.9268 117.9883)" font-family="'Consolas'" font-size="21">hg:Province</text>
<text transform="matrix(1 0 0 1 621.416 510.6719)" font-family="'Consolas'" font-size="21">hg:Place</text>
<text transform="matrix(1 0 0 1 619.416 543.1074)" font-family="'Consolas'" font-size="21">[4.916667,52.3</text>
<text transform="matrix(1 0 0 1 781.0586 543.1074)" font-family="'Consolas'" font-size="21">5</text>
<text transform="matrix(1 0 0 1 792.1855 543.1074)" font-family="'Consolas'" font-size="21">]</text>
<text transform="matrix(1 0 0 1 50.1226 150.5625)" font-family="'Consolas'" font-size="21">1550 - 1670</text>
<text transform="matrix(1 0 0 1 50.1226 119.9883)" font-family="'Consolas'" font-size="21">hg:Place</text>
<text transform="matrix(1 0 0 1 108.7812 712.8672)" font-family="'Consolas'" font-size="21">hg:Street</text>
<text transform="matrix(1 0 0 1 50.1226 89.1953)" font-family="'OpenSans'" font-size="27">Naerden</text>
<text transform="matrix(0.732 0.6813 -0.6813 0.732 397.2368 207.3262)" font-family="'OpenSans-Light'" font-size="27">is used for</text>
<text transform="matrix(0.3787 -0.9255 0.9255 0.3787 667.9746 347.0674)" font-family="'OpenSans-Light'" font-size="27">lies in</text>
<text transform="matrix(0.8591 -0.5118 0.5118 0.8591 385.8477 547.1074)" font-family="'OpenSans-Light'" font-size="27">lies in</text>
<text transform="matrix(1 0 0 1 621.416 481.1465)" font-family="'OpenSans-Semibold'" font-size="40">Naarden</text>
<text transform="matrix(1 0 0 1 108.7812 685.1465)" font-family="'OpenSans'" font-size="27">Oude Haven</text>
<g opacity="0.4">
	<g>
		
			<line fill="none" stroke="#4ABB84" stroke-width="9" stroke-linecap="round" stroke-linejoin="round" x1="313.537" y1="159.927" x2="317.853" y2="164.094"/>
		
			<line fill="none" stroke="#4ABB84" stroke-width="9" stroke-linecap="round" stroke-linejoin="round" stroke-dasharray="12.3392,12.3392" x1="326.73" y1="172.665" x2="535.336" y2="374.078"/>
		
			<line fill="none" stroke="#4ABB84" stroke-width="9" stroke-linecap="round" stroke-linejoin="round" x1="539.774" y1="378.363" x2="544.091" y2="382.531"/>
		<g>
			<polygon fill="#4ABB84" points="525.904,385.355 540.571,379.133 546.275,364.256 561.098,398.951 			"/>
		</g>
	</g>
</g>
<g opacity="0.4">
	<g>
		
			<line fill="none" stroke="#4ABB84" stroke-width="9" stroke-linecap="round" stroke-linejoin="round" x1="332.317" y1="609.414" x2="337.389" y2="606.208"/>
		
			<line fill="none" stroke="#4ABB84" stroke-width="9" stroke-linecap="round" stroke-linejoin="round" stroke-dasharray="12.369,12.369" x1="347.845" y1="599.6" x2="530.815" y2="483.946"/>
		
			<line fill="none" stroke="#4ABB84" stroke-width="9" stroke-linecap="round" stroke-linejoin="round" x1="536.043" y1="480.642" x2="541.115" y2="477.436"/>
		<g>
			<polygon fill="#4ABB84" points="539.549,495.773 536.979,480.05 523.878,470.982 561.098,464.805 			"/>
		</g>
	</g>
</g>
<g opacity="0.4">
	<g>
		
			<line fill="none" stroke="#4ABB84" stroke-width="9" stroke-linecap="round" stroke-linejoin="round" x1="608.658" y1="390.415" x2="610.881" y2="384.842"/>
		
			<line fill="none" stroke="#4ABB84" stroke-width="9" stroke-linecap="round" stroke-linejoin="round" stroke-dasharray="11.6509,11.6509" x1="615.197" y1="374.021" x2="682.104" y2="206.283"/>
		
			<line fill="none" stroke="#4ABB84" stroke-width="9" stroke-linecap="round" stroke-linejoin="round" x1="684.263" y1="200.872" x2="686.485" y2="195.299"/>
		<g>
			<polygon fill="#4ABB84" points="695.986,211.062 684.673,199.843 668.744,200.197 695.244,173.341 			"/>
		</g>
	</g>
</g>
</svg>
