<?xml version="1.0" encoding="utf-8"?>
<!-- Generator: Adobe Illustrator 16.0.4, SVG Export Plug-In . SVG Version: 6.00 Build 0)  -->
<!DOCTYPE svg PUBLIC "-//W3C//DTD SVG 1.1//EN" "http://www.w3.org/Graphics/SVG/1.1/DTD/svg11.dtd">
<svg version="1.1" xmlns="http://www.w3.org/2000/svg" xmlns:xlink="http://www.w3.org/1999/xlink" x="0px" y="0px" width="1024px"
	 height="768px" viewBox="0 0 1024 768" enable-background="new 0 0 1024 768" xml:space="preserve">
<g id="Layer_1" display="none">
	<g id="nvmboU.tif" display="inline">
		
			<image overflow="visible" width="1689" height="1173" id="Layer_0_1_" xlink:href="E65C68CE7B6CF074.png"  transform="matrix(0.636 0 0 0.636 13.6572 -15.9434)">
		</image>
	</g>
</g>
<g id="Layer_2">
	
		<polygon opacity="0.8" fill="none" stroke="#4ABB84" stroke-width="24" stroke-linecap="round" stroke-linejoin="round" stroke-miterlimit="10" enable-background="new    " points="
		133,401.667 236.728,329.813 247,339 239.667,354 254.334,357.001 274.334,359.001 364.25,232.334 387.5,220.333 383.667,208.333 
		372.333,195 360.958,182.333 338.281,207 324.324,197 362.584,80.064 481.274,93.185 488.333,119 643.666,104.334 647.667,79.667 
		737.683,31.111 773.667,123.001 761,139.001 821,211.001 839,203.667 920.334,259.667 823,345.667 807.667,338.334 
		816.334,308.334 805,302.333 785,301.001 783.667,327.076 711.667,462.334 717,480.334 735,487.668 741,480.334 755.667,487.668 
		737,611.668 614.334,606.334 608.334,589.668 639,577.001 633,557.001 616.334,539.668 600.334,556.334 451,601.001 427,595.668 
		420.334,619.001 427,642.334 458.334,635.668 463,651.668 365,720.334 325,606.334 339,595.668 359.667,619.001 375.667,607.001 
		390.334,578.334 371,569.668 280.334,445.001 281,420.334 256.334,421.668 227.667,436.334 248.334,467.668 235.667,475.001 	"/>
</g>
<g id="Layer_3" display="none">
	<circle display="inline" fill="#4ABB84" cx="407.29" cy="404.098" r="4.459"/>
	<circle display="inline" fill="#4ABB84" cx="516.735" cy="404.098" r="4.459"/>
	<path display="inline" opacity="0.6" fill="#4ABB84" enable-background="new    " d="M583.815,396.966l-54.729-94.785
		c-2.547-4.414-7.256-7.132-12.354-7.132H407.29c-5.096,0-9.804,2.718-12.352,7.132l-54.725,94.785
		c-2.548,4.413-2.548,9.851,0,14.263l54.725,94.785c2.548,4.414,7.256,7.133,12.352,7.133h109.443c5.099,0,9.808-2.719,12.354-7.133
		l54.729-94.785C586.362,406.815,586.362,401.378,583.815,396.966z M516.733,304.853c2.463,0,4.459,1.997,4.459,4.46
		s-1.996,4.46-4.459,4.46s-4.459-1.997-4.459-4.46S514.271,304.853,516.733,304.853z M407.289,304.853
		c2.463,0,4.459,1.997,4.459,4.46s-1.996,4.46-4.459,4.46s-4.459-1.997-4.459-4.46S404.826,304.853,407.289,304.853z
		 M352.564,408.559c-2.463,0-4.459-1.998-4.459-4.461s1.996-4.459,4.459-4.459c2.464,0,4.459,1.997,4.459,4.459
		S355.028,408.559,352.564,408.559z M407.289,503.343c-2.463,0-4.459-1.997-4.459-4.46s1.996-4.46,4.459-4.46
		s4.459,1.997,4.459,4.46S409.752,503.343,407.289,503.343z M516.733,503.343c-2.463,0-4.459-1.997-4.459-4.46
		s1.996-4.46,4.459-4.46s4.459,1.997,4.459,4.46S519.198,503.343,516.733,503.343z M508.5,484.62h-92.975l-46.49-80.522
		l46.49-80.521H508.5l46.49,80.521L508.5,484.62z M571.46,408.559c-2.463,0-4.459-1.998-4.459-4.461s1.996-4.459,4.459-4.459
		s4.459,1.997,4.459,4.459S573.923,408.559,571.46,408.559z"/>
	<path display="inline" opacity="0.6" fill="#4ABB84" enable-background="new    " d="M516.733,295.049
		c-7.875,0-14.262,6.386-14.262,14.263v189.57c0,7.878,6.387,14.263,14.262,14.263c7.881,0,14.265-6.385,14.265-14.263v-189.57
		C530.998,301.435,524.614,295.049,516.733,295.049z M516.733,503.343c-2.463,0-4.459-1.997-4.459-4.46s1.996-4.46,4.459-4.46
		s4.459,1.997,4.459,4.46S519.198,503.343,516.733,503.343z M516.733,313.772c-2.463,0-4.459-1.997-4.459-4.46
		s1.996-4.46,4.459-4.46s4.459,1.997,4.459,4.46S519.198,313.772,516.733,313.772z"/>
	<path display="inline" opacity="0.8" fill="#4ABB84" enable-background="new    " d="M516.735,295.049
		c-7.879,0-14.262,6.386-14.262,14.263v80.522h-80.919v-80.522c0-7.877-6.387-14.263-14.263-14.263
		c-7.879,0-14.263,6.386-14.263,14.263v189.57c0,7.878,6.384,14.263,14.263,14.263c7.876,0,14.263-6.385,14.263-14.263v-80.522
		h80.919v80.522c0,7.878,6.383,14.263,14.262,14.263c7.877,0,14.265-6.385,14.265-14.263v-189.57
		C531,301.435,524.612,295.049,516.735,295.049z M407.289,503.343c-2.463,0-4.459-1.997-4.459-4.46s1.996-4.46,4.459-4.46
		s4.459,1.997,4.459,4.46S409.752,503.343,407.289,503.343z M407.289,313.772c-2.463,0-4.459-1.997-4.459-4.46
		s1.996-4.46,4.459-4.46s4.459,1.997,4.459,4.46S409.752,313.772,407.289,313.772z M516.733,503.343
		c-2.463,0-4.459-1.997-4.459-4.46s1.996-4.46,4.459-4.46s4.459,1.997,4.459,4.46S519.198,503.343,516.733,503.343z
		 M516.733,313.772c-2.463,0-4.459-1.997-4.459-4.46s1.996-4.46,4.459-4.46s4.459,1.997,4.459,4.46S519.198,313.772,516.733,313.772
		z"/>
	<path display="inline" opacity="0.6" fill="#4ABB84" enable-background="new    " d="M407.29,295.049
		c-7.877,0-14.263,6.386-14.263,14.263v189.57c0,7.878,6.386,14.263,14.263,14.263c7.878,0,14.263-6.385,14.263-14.263v-189.57
		C421.553,301.435,415.168,295.049,407.29,295.049z M407.289,503.343c-2.463,0-4.459-1.997-4.459-4.46s1.996-4.46,4.459-4.46
		s4.459,1.997,4.459,4.46S409.752,503.343,407.289,503.343z M407.289,313.772c-2.463,0-4.459-1.997-4.459-4.46
		s1.996-4.46,4.459-4.46s4.459,1.997,4.459,4.46S409.752,313.772,407.289,313.772z"/>
</g>
</svg>
